<svg class="icon" width="200" height="200" viewBox="0 0 1024 1024" xmlns="http://www.w3.org/2000/svg"><path d="M286.72 356.864h636.928c44.544 0 80.384 36.352 80.384 80.384v224.768c0 44.544-36.352 80.384-80.384 80.384h-47.616c-10.752 0-18.944 9.728-16.896 20.48l18.432 99.84c3.072 15.36-16.384 25.088-27.136 13.824L729.088 748.032c-3.072-3.584-7.68-5.632-12.8-5.632H286.72c-44.544 0-80.384-36.352-80.384-80.384V437.248c0-44.544 36.352-80.384 80.384-80.384z"/><path d="M862.208 889.344c-6.144 0-12.288-2.56-16.896-7.68L723.968 753.152c-2.048-2.048-4.096-3.072-7.168-3.072H286.72c-48.64 0-88.064-39.424-88.064-88.064V437.248c0-48.64 39.424-88.064 88.064-88.064h636.928c48.64 0 88.064 39.424 88.064 88.064v224.768c0 48.64-39.424 88.064-88.064 88.064h-47.616c-3.072 0-5.632 1.024-7.168 3.584-2.048 2.048-2.56 5.12-2.048 7.68l18.432 99.84c2.048 10.752-3.072 20.48-12.288 25.088-3.584 2.048-7.168 3.072-10.752 3.072zm-575.488-524.8c-39.936 0-72.704 32.768-72.704 72.704v224.768c0 39.936 32.768 72.704 72.704 72.704h430.592c6.656 0 13.312 3.072 17.92 7.68l121.344 128.512c4.096 4.096 8.192 2.56 9.728 1.536 1.024-.512 5.12-3.072 4.096-8.704l-18.432-99.84c-1.536-7.168.512-14.848 5.12-20.48s11.776-9.216 18.944-9.216h47.616c39.936 0 72.704-32.768 72.704-72.704V437.248c0-39.936-32.768-72.704-72.704-72.704H286.72z"/><path d="M769.536 257.536h-665.6c-46.08 0-83.968 37.888-83.968 83.968v235.008c0 46.08 37.888 83.968 83.968 83.968H153.6c11.264 0 19.968 10.24 17.92 21.504l-19.456 104.448c-3.072 16.384 16.896 26.624 28.16 14.336l126.464-134.144c3.584-3.584 8.192-5.632 13.312-5.632h450.048c46.08 0 83.968-37.888 83.968-83.968v-235.52c0-46.08-37.888-83.968-84.48-83.968z"/><path d="M167.936 813.568c-3.584 0-7.68-1.024-11.264-2.56-9.728-5.12-14.848-15.36-12.8-26.112l19.456-104.448c.512-3.072 0-6.144-2.048-8.704s-5.12-3.584-8.192-3.584h-49.664c-50.688 0-91.648-40.96-91.648-91.648V341.504c0-50.688 40.96-91.648 91.648-91.648h665.6c50.688 0 91.648 40.96 91.648 91.648v235.008c0 50.688-40.96 91.648-91.648 91.648H319.488c-3.072 0-5.632 1.024-7.68 3.072L185.344 805.376c-4.608 5.632-10.752 8.192-17.408 8.192zm-64-548.352c-41.984 0-76.288 34.304-76.288 76.288v235.008c0 41.984 34.304 76.288 76.288 76.288H153.6c7.68 0 14.848 3.584 19.968 9.216 5.12 6.144 6.656 13.824 5.632 20.992l-19.456 104.448c-1.024 6.144 3.072 8.704 4.608 9.728 1.536.512 6.144 2.56 10.24-2.048l126.464-134.144c4.608-5.12 11.776-8.192 18.944-8.192h450.048c41.984 0 76.288-34.304 76.288-76.288V341.504c0-41.984-34.304-76.288-76.288-76.288H103.936z"/><path d="M151.552 446.976a62.464 62.464 0 10124.928 0 62.464 62.464 0 10-124.928 0z"/><path d="M214.016 515.072c-37.376 0-67.584-30.208-67.584-67.584s30.208-67.584 67.584-67.584 68.096 29.696 68.096 67.072-30.72 68.096-68.096 68.096zm0-125.44c-31.744 0-57.344 25.6-57.344 57.344s25.6 57.344 57.344 57.344 57.344-25.6 57.344-57.344c.512-31.744-25.6-57.344-57.344-57.344z"/><path d="M587.7760000000001 446.976a62.464 62.464 0 10124.928 0 62.464 62.464 0 10-124.928 0z"/><path d="M650.24 515.072c-37.376 0-67.584-30.208-67.584-67.584s30.208-67.584 67.584-67.584 67.584 30.208 67.584 67.584-30.208 67.584-67.584 67.584zm0-125.44c-31.744 0-57.344 25.6-57.344 57.344s25.6 57.344 57.344 57.344 57.344-25.6 57.344-57.344-25.6-57.344-57.344-57.344zM369.152 446.976a62.464 62.464 0 10124.928 0 62.464 62.464 0 10-124.928 0z"/><path d="M431.616 515.072c-37.376 0-67.584-30.208-67.584-67.584s30.208-68.096 67.584-68.096S499.2 409.6 499.2 446.976s-30.208 68.096-67.584 68.096zm0-125.44c-31.744 0-57.344 25.6-57.344 57.344s25.6 57.344 57.344 57.344 57.344-25.6 57.344-57.344-25.6-57.344-57.344-57.344z"/></svg>