<svg class="icon" width="200" height="200" viewBox="0 0 1024 1024" xmlns="http://www.w3.org/2000/svg"><path d="M502.272 948.224L75.264 521.216c-1.536-1.536-1.536-3.584 0-4.608L502.272 89.6c1.536-1.536 3.584-1.536 4.608 0l427.008 427.008c1.536 1.536 1.536 3.584 0 4.608L506.88 948.224c-1.536 1.024-3.584 1.024-4.608 0z"/><path d="M504.32 956.416c-2.56 0-5.632-1.024-7.68-3.072L69.632 526.336c-4.096-4.096-4.096-11.264 0-15.36L496.64 83.456c4.096-4.096 11.264-4.096 15.36 0l427.008 427.008c4.096 4.096 4.096 11.264 0 15.36L512 953.344c-2.048 2.048-4.608 3.072-7.68 3.072zM83.456 518.656L504.32 939.52l420.864-420.864L504.32 97.28 83.456 518.656z"/><path d="M497.152 97.792L510.464 512l395.264-395.264c5.632-5.632 2.048-15.872-6.144-16.384L506.88 88.064c-5.632-.512-9.728 4.096-9.728 9.728z"/><path d="M503.296 529.92L489.472 97.792c0-4.608 1.536-9.216 5.12-12.8s7.68-5.12 12.8-5.12l392.704 12.8c7.168 0 12.8 4.608 15.36 10.752 2.56 6.656 1.024 13.312-3.584 18.432L503.296 529.92zm1.536-432.64l12.8 396.8 382.464-382.464c.512-.512.512-1.024.512-2.048-.512-.512-1.024-1.024-1.536-1.024l-392.704-12.8c-.512 0-1.024.512-1.536.512v1.024z"/><path d="M522.24 946.688L508.416 532.48 113.152 927.744c-5.632 5.632-2.048 15.872 6.144 16.384L512 956.928c5.632 0 10.24-4.608 10.24-10.24z"/><path d="M512.512 964.096H512l-392.704-12.8c-7.168 0-12.8-4.608-15.36-10.752-2.56-6.656-1.024-13.312 3.584-18.432L515.072 514.56l13.824 432.128c0 4.608-1.536 9.216-5.12 12.8-2.048 3.072-6.656 4.608-11.264 4.608zM501.248 550.4L118.784 932.864c-.512.512-.512 1.024-.512 2.048.512.512 1.024 1.024 1.536 1.024l392.704 12.8c.512 0 1.024-.512 1.536-.512 0 0 .512-.512.512-1.536L501.248 550.4z"/><path d="M931.84 509.952l-414.208 13.312 395.264 395.264c5.632 5.632 15.872 2.048 16.384-6.144l12.8-392.704c0-5.632-4.608-10.24-10.24-9.728z"/><path d="M919.552 929.28c-4.608 0-8.704-1.536-11.776-5.12L500.224 516.608l432.128-13.824c4.608 0 9.216 1.536 12.8 5.12s5.12 8.192 5.12 12.8l-12.8 392.704c0 7.168-4.608 12.8-10.752 15.36-3.072 0-5.12.512-7.168.512zm-384-398.848l382.464 382.464c.512.512 1.024.512 2.048.512.512-.512 1.024-1.024 1.024-1.536l12.8-392.704c0-.512-.512-1.024-.512-1.536 0 0-1.024-.512-1.536-.512l-396.288 13.312z"/><path d="M76.8 526.848l414.208-13.312L96.256 118.272c-5.632-5.632-15.872-2.048-16.384 6.144l-12.8 392.704c0 5.632 4.096 10.24 9.728 9.728z"/><path d="M76.8 534.528c-4.608 0-8.704-2.048-12.288-5.12-3.584-3.584-5.12-8.192-5.12-12.8l12.8-392.704c0-7.168 4.608-12.8 10.752-15.36 6.656-2.56 13.312-1.024 18.432 3.584L508.928 519.68 76.8 533.504v1.024zm12.8-411.136h-.512c-.512.512-1.024 1.024-1.024 1.536l-12.8 392.704c0 .512.512 1.024.512 1.536 0 0 .512.512 1.536.512l396.8-12.8L90.624 123.904c-.512-.512-1.024-.512-1.024-.512z"/></svg>