<svg class="icon" width="200" height="200" viewBox="0 0 1024 1024" xmlns="http://www.w3.org/2000/svg"><path d="M80.38400000000001 506.88a440.832 440.832 0 10881.664 0 440.832 440.832 0 10-881.664 0z"/><path d="M521.216 955.392c-247.296 0-448.512-201.216-448.512-448.512S273.92 58.368 521.216 58.368 969.728 259.584 969.728 506.88 768.512 955.392 521.216 955.392zm0-881.664c-238.592 0-433.152 194.048-433.152 433.152 0 238.592 194.048 433.152 433.152 433.152S954.368 745.984 954.368 506.88c0-238.592-194.56-433.152-433.152-433.152z"/><path d="M521.216 841.216c-221.184 0-402.944-166.912-427.52-381.44-2.048 15.872-3.072 32.256-3.072 49.152 0 237.568 192.512 430.08 430.08 430.08s430.08-192.512 430.08-430.08c0-16.384-1.024-32.768-3.072-49.152-23.552 214.528-205.312 381.44-426.496 381.44z"/><path d="M168.96000000000004 506.88a110.08 110.08 0 10220.16 0 110.08 110.08 0 10-220.16 0zM657.408 506.88a110.08 110.08 0 10220.16 0 110.08 110.08 0 10-220.16 0z"/><path d="M432.64 414.72h-153.6c-4.096 0-7.68-3.584-7.68-7.68s3.584-7.68 7.68-7.68h153.088c4.096 0 7.68 3.584 7.68 7.68s-3.072 7.68-7.168 7.68zm335.872 0H615.424c-4.096 0-7.68-3.584-7.68-7.68s3.584-7.68 7.68-7.68h153.088c4.096 0 7.68 3.584 7.68 7.68s-3.584 7.68-7.68 7.68zM601.088 644.608H448c-4.096 0-7.68-3.584-7.68-7.68s3.584-7.68 7.68-7.68h153.088c4.096 0 7.68 3.584 7.68 7.68s-3.584 7.68-7.68 7.68zm-65.024-70.144h-56.32c-4.096 0-7.68-3.584-7.68-7.68s3.584-7.68 7.68-7.68h56.32c10.752 0 19.968-8.704 19.968-19.968V392.704c0-4.096 3.584-7.68 7.68-7.68s7.68 3.584 7.68 7.68v146.432c0 19.456-15.872 35.328-35.328 35.328zM242.176 459.264a10.24 10.24 0 1020.48 0 10.24 10.24 0 10-20.48 0zM282.11199999999997 459.264a10.24 10.24 0 1020.48 0 10.24 10.24 0 10-20.48 0zM747.008 459.264a10.24 10.24 0 1020.48 0 10.24 10.24 0 10-20.48 0zM786.432 459.264a10.24 10.24 0 1020.48 0 10.24 10.24 0 10-20.48 0z"/></svg>