<svg class="icon" width="200" height="200" viewBox="0 0 1024 1024" xmlns="http://www.w3.org/2000/svg"><path d="M508.928 592.896l25.088 13.824c1.536 1.024 1.536 3.072 0 3.584l-25.088 13.824c-35.84 19.456-65.024 49.152-84.992 84.992l-13.824 25.088c-1.024 1.536-3.072 1.536-3.584 0l-13.824-25.088c-19.456-35.84-49.152-65.024-84.992-84.992l-25.088-13.824c-1.536-1.024-1.536-3.072 0-3.584l25.088-13.824c35.84-19.456 65.024-49.152 84.992-84.992l13.824-25.088c1.024-1.536 3.072-1.536 3.584 0l13.824 25.088c19.456 35.84 49.152 65.536 84.992 84.992z"/><path d="M408.576 739.84c-2.56 0-5.12-1.536-6.144-3.584l-13.824-25.088c-18.944-34.816-47.616-63.488-82.944-82.944L280.576 614.4c-2.56-1.024-3.584-3.584-3.584-6.144s1.536-5.12 3.584-6.144l25.088-13.824c34.816-18.944 63.488-47.616 82.944-82.944l13.824-25.088c1.024-2.56 3.584-3.584 6.144-3.584s5.12 1.536 6.144 3.584l13.824 25.088c18.944 34.816 47.616 63.488 82.944 82.944l25.088 13.824c2.56 1.024 3.584 3.584 3.584 6.144s-1.536 5.12-3.584 6.144l-25.088 13.824c-34.816 18.944-63.488 47.616-82.944 82.944l-13.824 25.088c-1.024 2.048-3.584 3.584-6.144 3.584zm-2.56-8.704zm5.12 0zm-120.32-122.88l19.968 10.752c36.864 19.968 66.56 50.176 87.04 87.04l10.752 19.968 10.752-19.968c19.968-36.864 50.176-66.56 87.04-87.04l19.968-10.752-19.968-10.752c-36.864-19.968-66.56-50.176-87.04-87.04l-10.752-19.968-10.752 19.968c-19.968 36.864-50.176 66.56-87.04 87.04l-19.968 10.752z"/><path d="M468.48 599.04l13.312 7.168c1.536 1.024 1.536 3.072 0 3.584l-13.312 7.168c-21.504 11.776-38.912 29.184-50.688 50.688l-7.168 13.312c-1.024 1.536-3.072 1.536-3.584 0l-7.168-13.312c-11.776-21.504-29.184-38.912-50.688-50.688l-13.312-7.168c-1.536-1.024-1.536-3.072 0-3.584l13.312-7.168c21.504-11.776 38.912-29.184 50.688-50.688l7.168-13.312c1.024-1.536 3.072-1.536 3.584 0l7.168 13.312c11.776 21.504 29.184 38.912 50.688 50.688z"/><path d="M898.56 610.304c-1.024-33.28-11.264-403.968-11.264-403.968 0-50.688-41.472-92.672-92.672-92.672-50.688 0-92.672 41.472-92.672 92.672v75.776L503.296 55.296c-33.792-38.4-92.16-41.984-130.56-8.704-38.4 33.792-41.984 92.16-8.704 130.56l138.752 161.28c-173.056-59.904-275.456 29.184-322.048 134.656-17.92 40.96 11.776 86.528 56.32 86.528 21.504 0 40.96-11.264 52.736-29.184 27.648-43.008 78.336-70.656 134.656-65.536 67.584 6.144 123.392 59.904 130.56 127.488 9.728 87.04-58.368 161.28-143.872 161.28-62.464 0-116.224-39.936-136.192-95.744-7.68-20.992-20.992-51.712-38.4-65.024-21.504-15.872-48.64-18.432-72.704-3.072-13.824 8.704-15.36 25.6-15.36 35.328v.512c0 207.36 167.936 375.296 375.296 375.296 211.968-.512 382.976-176.64 374.784-390.656z"/><path d="M523.776 1008.128c-102.4 0-198.144-39.936-270.848-112.128C180.736 823.808 140.8 727.552 140.8 625.152v-.512c0-24.576 10.24-36.352 18.944-41.472 25.6-16.384 56.32-14.848 81.408 3.584 14.848 11.264 28.672 34.304 41.472 68.608 19.456 54.272 71.168 90.624 129.024 90.624 38.912 0 76.288-16.896 101.888-45.568 26.112-29.184 38.4-67.584 33.792-107.008-7.168-64.512-59.392-115.2-123.904-120.832-50.688-4.608-99.84 19.456-127.488 62.464-13.312 20.48-35.328 32.768-58.88 32.768s-45.568-11.776-58.368-31.744c-12.8-19.968-14.848-44.544-5.12-66.048 28.16-63.488 113.152-200.192 306.176-146.944L358.4 182.272c-17.408-19.968-26.112-45.568-24.576-72.704s13.824-51.2 33.792-68.608c19.968-17.408 46.08-26.112 72.704-24.576 26.624 1.536 51.2 13.824 68.608 33.792l185.856 211.456v-55.296c0-55.296 45.056-100.352 100.352-100.352s100.352 45.056 100.352 100.352c0 3.584 9.728 371.2 11.264 403.968 4.096 104.96-33.792 204.8-106.496 280.576-73.728 75.264-171.52 117.248-276.48 117.248zM197.632 586.752c-10.24 0-20.48 3.072-29.696 8.704-7.68 5.12-11.776 14.848-11.776 28.672v.512c0 98.304 38.4 190.464 107.52 259.584 69.632 69.632 161.792 107.52 259.584 107.52 100.864 0 194.56-39.936 264.704-112.64 69.632-72.704 106.496-167.936 102.4-269.312-1.024-32.768-11.264-400.384-11.264-403.968 0-47.104-37.888-84.992-84.992-84.992-46.592 0-84.992 37.888-84.992 84.992v96.256L497.152 60.416c-14.848-16.896-35.84-27.136-58.368-28.672-22.528-1.536-44.544 6.144-61.44 20.992s-27.136 35.328-28.672 58.368c-1.536 22.528 6.144 44.544 20.992 61.44L527.36 354.816l-27.136-9.216c-199.168-69.12-284.672 68.096-312.32 130.56-7.168 16.896-6.144 35.84 4.096 51.2s27.136 24.576 45.568 24.576 35.84-9.728 46.08-26.112c30.72-47.616 84.992-74.24 141.312-69.12 71.68 6.144 129.536 62.976 137.728 134.144 5.12 44.032-8.704 86.016-37.888 118.784-28.672 32.256-70.144 50.688-113.664 50.688-64 0-121.856-40.448-143.36-100.864-11.264-31.232-23.552-52.224-35.84-61.44-10.752-7.168-22.528-11.264-34.304-11.264z"/><path d="M695.808 334.848V286.72L502.272 62.464C483.84 40.96 456.704 30.208 430.08 31.232l265.728 303.616z"/><path d="M891.392 608.768C890.368 576 880.64 211.456 880.64 211.456c0-50.176-40.96-91.136-91.136-91.136h-4.608c10.24 14.848 15.872 32.256 15.872 51.2 0 0 9.728 364.544 10.752 397.312 8.192 210.432-160.256 383.488-369.152 383.488-43.008 0-84.48-7.68-122.88-20.992 58.368 38.4 127.488 60.416 202.752 60.416 208.896 1.024 377.344-172.544 369.152-382.976z"/><path d="M701.952 604.16c-4.096 0-7.68-3.584-7.68-7.68V282.112c0-4.096 3.584-7.68 7.68-7.68s7.68 3.584 7.68 7.68V596.48c0 4.096-3.072 7.68-7.68 7.68z"/><path d="M436.736 260.096l100.352 106.496"/><path d="M537.088 374.272c-2.048 0-4.096-1.024-5.632-2.56L431.104 265.216c-3.072-3.072-2.56-8.192.512-10.752 3.072-3.072 8.192-2.56 10.752.512L542.72 360.96c3.072 3.072 2.56 8.192-.512 10.752-1.536 1.536-3.072 2.56-5.12 2.56z"/></svg>