<svg class="icon" width="200" height="200" viewBox="0 0 1024 1024" xmlns="http://www.w3.org/2000/svg"><path d="M48.639999999999986 509.44a463.36 463.36 0 10926.72 0 463.36 463.36 0 10-926.72 0z"/><path d="M512 980.48c-259.584 0-471.04-211.456-471.04-471.04S252.416 38.4 512 38.4s471.04 211.456 471.04 471.04S771.584 980.48 512 980.48zm0-926.72c-251.392 0-455.68 204.288-455.68 455.68S260.608 965.12 512 965.12s455.68-204.288 455.68-455.68S763.392 53.76 512 53.76z"/><path d="M512 860.672c-232.448 0-423.936-175.104-449.536-400.896-2.048 16.896-3.072 34.304-3.072 51.712 0 249.856 202.752 452.608 452.608 452.608s452.608-202.752 452.608-452.608c0-17.408-1.024-34.816-3.072-51.712C935.936 685.568 744.448 860.672 512 860.672z"/><path d="M141.824 509.44a115.712 115.712 0 10231.424 0 115.712 115.712 0 10-231.424 0zM655.36 509.44a115.712 115.712 0 10231.424 0 115.712 115.712 0 10-231.424 0z"/><path d="M278.016 379.392a105.984 95.232 90 10190.464 0 105.984 95.232 90 10-190.464 0z"/><path d="M373.248 493.056c-56.832 0-102.912-51.2-102.912-113.664s46.08-113.664 102.912-113.664S476.16 316.416 476.16 379.392s-46.592 113.664-102.912 113.664zm0-211.968c-48.128 0-87.552 44.032-87.552 98.304s39.424 98.304 87.552 98.304c48.128 0 87.552-44.032 87.552-98.304s-39.424-98.304-87.552-98.304z"/><path d="M561.664 378.88a105.984 95.232 90 10190.464 0 105.984 95.232 90 10-190.464 0z"/><path d="M656.896 492.544c-56.832 0-102.912-51.2-102.912-113.664s46.08-113.664 102.912-113.664 102.912 51.2 102.912 113.664-46.08 113.664-102.912 113.664zm0-212.48c-48.128 0-87.552 44.032-87.552 98.304s39.424 98.304 87.552 98.304c48.128 0 87.552-44.032 87.552-98.304s-38.912-98.304-87.552-98.304zM445.952 345.6c0 34.816-25.088 62.464-56.32 62.464s-56.32-28.16-56.32-62.464c0-9.728 2.048-18.944 5.632-26.624 9.216-20.992 28.16-35.84 50.688-35.84s41.984 14.848 50.688 35.84c3.584 7.68 5.632 16.896 5.632 26.624z"/><path d="M729.6 345.6c0 34.816-25.088 62.464-56.32 62.464s-56.32-28.16-56.32-62.464c0-9.728 2.048-18.944 5.632-26.624 9.216-20.992 28.16-35.84 50.688-35.84s41.984 14.848 50.688 35.84c3.584 7.68 5.632 16.896 5.632 26.624zM508.416 604.672c-53.76 0-104.96-19.968-144.896-56.32l-7.68-7.168c-3.072-3.072-3.584-7.68-.512-10.752 3.072-3.072 7.68-3.584 10.752-.512l7.68 7.168c39.936 36.352 91.136 54.784 144.896 52.224S621.568 563.2 657.92 523.264c3.072-3.072 7.68-3.584 10.752-.512 3.072 3.072 3.584 7.68.512 10.752-38.912 43.008-92.16 68.608-150.016 71.168h-10.752zM215.552 480.768a10.752 10.752 0 1021.504 0 10.752 10.752 0 10-21.504 0zM257.536 480.768a10.752 10.752 0 1021.504 0 10.752 10.752 0 10-21.504 0zM745.984 480.768a10.752 10.752 0 1021.504 0 10.752 10.752 0 10-21.504 0zM787.9680000000001 480.768a10.752 10.752 0 1021.504 0 10.752 10.752 0 10-21.504 0z"/></svg>